
<svg version="1.1" 
	 baseProfile="full"
	 xmlns="http://www.w3.org/2000/svg" 
	 xmlns:xlink="http://www.w3.org/1999/xlink" 
	 x="0px" y="0px"
	 viewBox="0 0 612 792" 
	 xml:space="preserve">
	 <title>varsesvi.se logotype</title>
     <desc>Two blue horizontal stripes masked out by two arrows forming a negative letter S</desc>
<style type="text/css">
	.bar{fill:#1F81C4;}
</style>
<defs>
	<mask id="arrows">
		<g>
    		<rect width="100%" height="50%" fill="white">
       <animate attributeType="XML"
                 attributeName="x"
                 from="750"
                 to="0"
                 dur="1s"
                 repeatCount="0" />
      </rect>
			<rect width="100%" height="50%" y="50%" fill="white">
       <animate attributeType="XML"
                 attributeName="x"
                 from="-500"
                 to="0"
                 dur="1s"
                 repeatCount="0" />
      </rect>
			<polygon points="208.4,580 167.8,546.7 252.6,443.4 168.9,347.7 300.4,211.5 338.1,248 240.1,349.5 321.4,442.3 	"/>
     
		</g>
	</mask>
</defs>

<g mask="url(#arrows)">

	<path class="bar" d="M525,344.5c0,17.2-10.8,31.1-24,31.1H129.1c-13.3,0-24.1-14-24.1-31.1l0,0c0-17.2,10.8-31.1,24.1-31.1h371.8
		C514.2,313.4,525,327.3,525,344.5L525,344.5z">

</path>
	<path class="bar" d="M525,442.9c0,17.2-10.8,31.1-24,31.1H129.1c-13.3,0-24.1-14-24.1-31.1l0,0c0-17.2,10.8-31.1,24.1-31.1h371.8
		C514.2,411.7,525,425.7,525,442.9L525,442.9z"/>
</g>
</svg>
