<?xml version="1.0" encoding="utf-8"?>
<!-- Generator: Adobe Illustrator 19.2.1, SVG Export Plug-In . SVG Version: 6.00 Build 0)  -->
<svg version="1.1" id="Layer_1" xmlns="http://www.w3.org/2000/svg" xmlns:xlink="http://www.w3.org/1999/xlink" x="0px" y="0px"
	 viewBox="0 0 612 792" style="enable-background:new 0 0 612 792;" xml:space="preserve">
<style type="text/css">
	.st0{fill:#1F81C4;}
	.st1{fill:#FFFFFF;}
</style>
<g>
	<path class="st0" d="M525,344.5c0,17.2-10.8,31.1-24,31.1H129.1c-13.3,0-24.1-14-24.1-31.1l0,0c0-17.2,10.8-31.1,24.1-31.1h371.8
		C514.2,313.4,525,327.3,525,344.5L525,344.5z"/>
</g>
<g>
	<path class="st0" d="M525,442.9c0,17.2-10.8,31.1-24,31.1H129.1c-13.3,0-24.1-14-24.1-31.1l0,0c0-17.2,10.8-31.1,24.1-31.1h371.8
		C514.2,411.7,525,425.7,525,442.9L525,442.9z"/>
</g>
<g>
	<polygon class="st1" points="208.4,580 167.8,546.7 252.6,443.4 168.9,347.7 300.4,211.5 338.1,248 240.1,349.5 321.4,442.3 	"/>
</g>
</svg>
